<?xml version="1.0" encoding="UTF-8" standalone="no"?>
<svg
   width="1024"
   height="1024"
   viewBox="0 0 1024 1024"
   version="1.1"
   id="svg14"
   sodipodi:docname="diashapes-others.svg"
   inkscape:version="1.4.2 (1:1.4.2+202505120738+ebf0e940d0)"
   inkscape:export-filename="diashapes-others.png"
   inkscape:export-xdpi="24"
   inkscape:export-ydpi="24"
   xmlns:inkscape="http://www.inkscape.org/namespaces/inkscape"
   xmlns:sodipodi="http://sodipodi.sourceforge.net/DTD/sodipodi-0.dtd"
   xmlns="http://www.w3.org/2000/svg"
   xmlns:svg="http://www.w3.org/2000/svg">
  <defs
     id="defs14" />
  <sodipodi:namedview
     id="namedview14"
     pagecolor="#ffffff"
     bordercolor="#666666"
     borderopacity="1.0"
     inkscape:showpageshadow="2"
     inkscape:pageopacity="0.0"
     inkscape:pagecheckerboard="0"
     inkscape:deskcolor="#d1d1d1"
     inkscape:zoom="0.55726091"
     inkscape:cx="366.07628"
     inkscape:cy="675.62607"
     inkscape:window-width="1860"
     inkscape:window-height="1016"
     inkscape:window-x="60"
     inkscape:window-y="27"
     inkscape:window-maximized="1"
     inkscape:current-layer="g14" />
  <g
     id="g14"
     transform="matrix(1.3756767,0,0,1.3756767,-193.7025,-185.37173)">
    <path
       id="path1"
       d="m 113.73242,115.25488 -28.431639,0.0137 c -4.92,0.003 -9.877469,0.13622 -14.792969,-0.009 -0.3523,5.291 0.202261,14.58386 1.334961,19.71386 1.0847,6.897 2.879288,15.31074 5.742188,21.63575 1.8788,5.827 5.191028,15.04434 9.111328,19.77734 3.5972,7.84 9.895309,15.55704 15.537111,22.04004 4.432,4.63 18.17265,18.46023 24.13965,19.61523 9.755,11.148 43.69457,20.66556 57.43457,22.64356 3.541,-0.811 13.22404,0.28178 17.49804,0.30078 l 37.32129,0.0146 c 5.923,-0.003 11.86907,-0.17391 17.78907,-0.004 -0.759,-8.021 -0.99529,-15.49045 -2.73829,-23.43945 -1.706,-6.514 -3.60404,-12.88186 -6.12304,-19.13086 -1.877,-5.905 -7.21984,-17.25104 -11.13184,-22.04004 -4.677,-6.938 -9.74123,-14.07335 -15.90723,-19.77734 -4.517,-7.65601 -22.03682,-16.80394 -24.67382,-21.08594 -0.789,-0.103 -1.60196,-0.35981 -2.37696,-0.54981 -23.979,-16.598 -51.28842,-19.72675 -79.73242,-19.71875 z"
       transform="scale(2)"
       style="fill:#e63946;fill-opacity:1" />
    <path
       fill="#e63946"
       transform="scale(2)"
       d="m 316.076,134.974 c 25.335,-1.957 61.128,12.96 79.648,28.845 27.273,23.393 45.513,55.903 46.859,92.172 h -68.036 c -0.803,-30.984 -27.476,-55.879 -58.471,-54 z"
       id="path4" />
    <path
       fill="#1d3557"
       transform="scale(2)"
       d="m 315.434,308.376 c -0.061,0.839 -0.025,1.79 -0.391,2.546 -6.499,0.49 -13.302,0.076 -19.835,0.072 l -38.792,-0.001 v -69.996 c 36.275,2.743 59.33,31.824 59.018,67.379 z"
       id="path9" />
    <path
       fill="#73b6b0"
       transform="scale(2)"
       d="m 374.547,255.991 h 68.036 c 0.036,40.411 -9.758,69.976 -39.407,99.73 -0.253,0.253 -0.54,0.554 -0.895,0.627 -1.772,0.55 -3.627,1.756 -5.365,2.524 -32.509,14.377 -71.391,-1.76 -79.789,-37.104 -0.849,-3.575 -1.068,-7.179 -1.693,-10.775 31.748,4.671 58.789,-23.854 59.113,-55.002 z"
       id="path10" />
    <path
       fill="#73b6b0"
       transform="scale(2)"
       d="m 256.416,310.993 38.792,0.001 c 6.533,0.004 13.336,0.418 19.835,-0.072 0.366,-0.756 0.33,-1.707 0.391,-2.546 0.003,0.871 0.03,1.747 0,2.617 -0.949,2.343 -1.079,4.821 -1.711,7.242 -4.743,18.165 -14.995,27.511 -27.856,40.518 l -19.395,19.701 c -3.344,3.423 -7.235,6.874 -10.056,10.73 L 256.4,338.838 c 0.001,-8.136 0.376,-16.419 0.016,-24.54 0.137,-1.079 0.029,-2.217 0,-3.305 z"
       id="path11" />
    <path
       fill="#F1FAEE"
       transform="scale(2)"
       d="m 159.19936,310.62776 c 4.888,0.0183 7.24464,-0.0778 12.13364,-0.0408 l 53.747,0.064 c 6.392,0.059 25.022,1.461 30.396,0.4 l 0.394,0.233 c 0.155,0.989 0.242,2.061 0.546,3.014 -13.671,2.307 -20.572,9.167 -29.915,18.59 l -41.148,40.931 c -5.841,5.756 -12.015,11.362 -17.526,17.423 -2.221,-0.461 -4.677,-0.107 -6.943,-0.152 -19.186,-0.372 -34.457,-12.714 -34.522,-32.484 -0.044,-13.193 4.133,-17.804 12.95,-26.992 2.271,-2.367 18.978,-18.504 19.618,-20.497 z"
       id="path12"
       style="fill:#1d3557;fill-opacity:1"
       sodipodi:nodetypes="cccccccccccccc" />
    <path
       fill="#1d3557"
       transform="scale(2)"
       d="m 256.416,389.184 c 2.821,-3.856 6.712,-7.307 10.056,-10.73 l 19.395,-19.701 c 12.861,-13.007 23.113,-22.353 27.856,-40.518 0.632,-2.421 0.762,-4.899 1.711,-7.242 0.625,3.596 0.844,7.2 1.693,10.775 8.398,35.344 47.28,51.481 79.789,37.104 1.738,-0.768 3.593,-1.974 5.365,-2.524 -40.599,41.808 -93.309,34.909 -145.865,34.894 z"
       id="path13" />
    <path
       fill="#e63946"
       d="m 335.654,782.47053 c 11.022,-12.72757 23.37,-24.49967 35.052,-36.58677 l 82.296,-85.95149 c 18.686,-19.78747 32.488,-34.19286 59.83,-39.03736 0.72,17.05339 -0.03,34.44696 -0.032,51.53184 l 0.032,105.72216 v 4.32162 c -11.14,0.51448 -22.516,0.0252 -33.68,0.0189 l -117.672,-0.002 c -8.53,0.0147 -17.332,0.60267 -25.826,-0.0168 z"
       id="path14"
       style="stroke-width:2.04935" />
  </g>
</svg>
